HIERARCHY
ROOT Hips
{
    OFFSET 0.000000 0.000000 0.000000
    CHANNELS 6 Xposition Yposition Zposition Zrotation Xrotation Yrotation
    JOINT Spine
    {
        OFFSET -0.000000 7.305679 0.000000
        CHANNELS 3 Zrotation Xrotation Yrotation
        JOINT Spine1
        {
            OFFSET -0.000000 20.356625 0.000000
            CHANNELS 3 Zrotation Xrotation Yrotation
            JOINT Neck
            {
                OFFSET -0.000000 22.138498 0.000000
                CHANNELS 3 Zrotation Xrotation Yrotation
                JOINT Head
                {
                    OFFSET -0.000000 13.809516 1.781873
                    CHANNELS 3 Zrotation Xrotation Yrotation
                    End Site
                    {
                        OFFSET -0.000000 17.818729 0.000000
                    }
                }
            }
            JOINT LeftShoulder
            {
                OFFSET 3.599131 17.989975 0.023592
                CHANNELS 3 Zrotation Xrotation Yrotation
                JOINT LeftArm
                {
                    OFFSET 12.560995 0.000000 0.000000
                    CHANNELS 3 Zrotation Xrotation Yrotation
                    JOINT LeftForeArm
                    {
                        OFFSET 22.903347 0.000000 0.000000
                        CHANNELS 3 Zrotation Xrotation Yrotation
                        JOINT LeftHand
                        {
                            OFFSET 21.865294 0.000000 0.000000
                            CHANNELS 3 Zrotation Xrotation Yrotation
                            JOINT LeftHandThumb1
                            {
                                OFFSET 1.853706 -2.106484 2.949078
                                CHANNELS 3 Zrotation Xrotation Yrotation
                                JOINT LeftHandThumb2
                                {
                                    OFFSET 2.049154 0.000000 1.336405
                                    CHANNELS 3 Zrotation Xrotation Yrotation
                                    JOINT LeftHandThumb3
                                    {
                                        OFFSET 2.672809 0.000000 0.000000
                                        CHANNELS 3 Zrotation Xrotation Yrotation
                                        End Site
                                        {
                                            OFFSET 2.381303 0.000000 0.000000
                                        }
                                    }
                                }
                            }
                            JOINT LeftHandIndex1
                            {
                                OFFSET 7.583345 0.000000 2.949078
                                CHANNELS 3 Zrotation Xrotation Yrotation
                                JOINT LeftHandIndex2
                                {
                                    OFFSET 4.454682 0.000000 0.000000
                                    CHANNELS 3 Zrotation Xrotation Yrotation
                                    JOINT LeftHandIndex3
                                    {
                                        OFFSET 2.227341 0.000000 0.000000
                                        CHANNELS 3 Zrotation Xrotation Yrotation
                                        End Site
                                        {
                                            OFFSET 1.984419 0.000000 0.000000
                                        }
                                    }
                                }
                            }
                            JOINT LeftHandMiddle1
                            {
                                OFFSET 7.583345 0.000000 0.977409
                                CHANNELS 3 Zrotation Xrotation Yrotation
                                JOINT LeftHandMiddle2
                                {
                                    OFFSET 4.900151 0.000000 0.000000
                                    CHANNELS 3 Zrotation Xrotation Yrotation
                                    JOINT LeftHandMiddle3
                                    {
                                        OFFSET 2.672809 0.000000 0.000000
                                        CHANNELS 3 Zrotation Xrotation Yrotation
                                        End Site
                                        {
                                            OFFSET 2.381303 0.000000 0.000000
                                        }
                                    }
                                }
                            }
                            JOINT LeftHandRing1
                            {
                                OFFSET 7.162047 0.000000 -0.977409
                                CHANNELS 3 Zrotation Xrotation Yrotation
                                JOINT LeftHandRing2
                                {
                                    OFFSET 4.454682 0.000000 0.000000
                                    CHANNELS 3 Zrotation Xrotation Yrotation
                                    JOINT LeftHandRing3
                                    {
                                        OFFSET 2.227341 0.000000 0.000000
                                        CHANNELS 3 Zrotation Xrotation Yrotation
                                        End Site
                                        {
                                            OFFSET 1.984419 0.000000 0.000000
                                        }
                                    }
                                }
                            }
                            JOINT LeftHandPinky1
                            {
                                OFFSET 6.740750 0.000000 -2.949078
                                CHANNELS 3 Zrotation Xrotation Yrotation
                                JOINT LeftHandPinky2
                                {
                                    OFFSET 3.563746 0.000000 0.000000
                                    CHANNELS 3 Zrotation Xrotation Yrotation
                                    JOINT LeftHandPinky3
                                    {
                                        OFFSET 1.781873 0.000000 0.000000
                                        CHANNELS 3 Zrotation Xrotation Yrotation
                                        End Site
                                        {
                                            OFFSET 1.587536 0.000000 0.000000
                                        }
                                    }
                                }
                            }
                        }
                    }
                }
            }
            JOINT RightShoulder
            {
                OFFSET -3.506995 17.989975 0.023592
                CHANNELS 3 Zrotation Xrotation Yrotation
                JOINT RightArm
                {
                    OFFSET -12.560995 0.000000 0.000000
                    CHANNELS 3 Zrotation Xrotation Yrotation
                    JOINT RightForeArm
                    {
                        OFFSET -22.903347 0.000000 0.000000
                        CHANNELS 3 Zrotation Xrotation Yrotation
                        JOINT RightHand
                        {
                            OFFSET -21.865294 0.000000 0.000000
                            CHANNELS 3 Zrotation Xrotation Yrotation
                            JOINT RightHandThumb1
                            {
                                OFFSET -1.853706 -2.106484 2.949078
                                CHANNELS 3 Zrotation Xrotation Yrotation
                                JOINT RightHandThumb2
                                {
                                    OFFSET -2.049154 0.000000 1.336405
                                    CHANNELS 3 Zrotation Xrotation Yrotation
                                    JOINT RightHandThumb3
                                    {
                                        OFFSET -2.672809 0.000000 0.000000
                                        CHANNELS 3 Zrotation Xrotation Yrotation
                                        End Site
                                        {
                                            OFFSET -2.381303 0.000000 0.000000
                                        }
                                    }
                                }
                            }
                            JOINT RightHandIndex1
                            {
                                OFFSET -7.583345 0.000000 2.949078
                                CHANNELS 3 Zrotation Xrotation Yrotation
                                JOINT RightHandIndex2
                                {
                                    OFFSET -4.454682 0.000000 0.000000
                                    CHANNELS 3 Zrotation Xrotation Yrotation
                                    JOINT RightHandIndex3
                                    {
                                        OFFSET -2.227341 0.000000 0.000000
                                        CHANNELS 3 Zrotation Xrotation Yrotation
                                        End Site
                                        {
                                            OFFSET -1.984419 0.000000 0.000000
                                        }
                                    }
                                }
                            }
                            JOINT RightHandMiddle1
                            {
                                OFFSET -7.583345 0.000000 0.977409
                                CHANNELS 3 Zrotation Xrotation Yrotation
                                JOINT RightHandMiddle2
                                {
                                    OFFSET -4.900151 0.000000 0.000000
                                    CHANNELS 3 Zrotation Xrotation Yrotation
                                    JOINT RightHandMiddle3
                                    {
                                        OFFSET -2.672809 0.000000 0.000000
                                        CHANNELS 3 Zrotation Xrotation Yrotation
                                        End Site
                                        {
                                            OFFSET -2.381303 0.000000 0.000000
                                        }
                                    }
                                }
                            }
                            JOINT RightHandRing1
                            {
                                OFFSET -7.162047 0.000000 -0.977409
                                CHANNELS 3 Zrotation Xrotation Yrotation
                                JOINT RightHandRing2
                                {
                                    OFFSET -4.454682 0.000000 0.000000
                                    CHANNELS 3 Zrotation Xrotation Yrotation
                                    JOINT RightHandRing3
                                    {
                                        OFFSET -2.227341 0.000000 0.000000
                                        CHANNELS 3 Zrotation Xrotation Yrotation
                                        End Site
                                        {
                                            OFFSET -1.984419 0.000000 0.000000
                                        }
                                    }
                                }
                            }
                            JOINT RightHandPinky1
                            {
                                OFFSET -6.740750 0.000000 -2.949078
                                CHANNELS 3 Zrotation Xrotation Yrotation
                                JOINT RightHandPinky2
                                {
                                    OFFSET -3.563746 0.000000 0.000000
                                    CHANNELS 3 Zrotation Xrotation Yrotation
                                    JOINT RightHandPinky3
                                    {
                                        OFFSET -1.781873 0.000000 0.000000
                                        CHANNELS 3 Zrotation Xrotation Yrotation
                                        End Site
                                        {
                                            OFFSET -1.587536 0.000000 0.000000
                                        }
                                    }
                                }
                            }
                        }
                    }
                }
            }
        }
    }
    JOINT LeftUpLeg
    {
        OFFSET 8.909365 0.000000 0.000000
        CHANNELS 3 Zrotation Xrotation Yrotation
        JOINT LeftLeg
        {
            OFFSET -0.000000 -38.765560 0.000000
            CHANNELS 3 Zrotation Xrotation Yrotation
            JOINT LeftFoot
            {
                OFFSET -0.000000 -35.244961 0.000000
                CHANNELS 3 Zrotation Xrotation Yrotation
                JOINT LeftToeBase
                {
                    OFFSET -0.000000 -5.791087 13.364048
                    CHANNELS 3 Zrotation Xrotation Yrotation
                    End Site
                    {
                        OFFSET -0.000000 0.000000 3.563746
                    }
                }
            }
        }
    }
    JOINT RightUpLeg
    {
        OFFSET -8.909365 0.000000 0.000000
        CHANNELS 3 Zrotation Xrotation Yrotation
        JOINT RightLeg
        {
            OFFSET -0.000000 -38.765560 0.000000
            CHANNELS 3 Zrotation Xrotation Yrotation
            JOINT RightFoot
            {
                OFFSET -0.000000 -35.244961 0.000000
                CHANNELS 3 Zrotation Xrotation Yrotation
                JOINT RightToeBase
                {
                    OFFSET -0.000000 -5.791087 13.364048
                    CHANNELS 3 Zrotation Xrotation Yrotation
                    End Site
                    {
                        OFFSET -0.000000 0.000000 3.563746
                    }
                }
            }
        }
    }
}
MOTION
Frames:    4
Frame Time:    0.008333
-4.812310    81.640114    103.601799    -0.432619    -1.045240    -2.192991    0.650555    -0.649967    -0.165753    -1.337525    5.656224    0.008970    0.824153    1.131563    -1.912732    2.873367    3.343450    -2.310868    1.443039    5.053992    -8.895647    -89.217102    26.155609    0.521908    10.099697    -11.282151    -0.672952    4.191192    -31.567970    14.841251    0.316307    0.197058    0.622174    -0.000000    0.000000    0.682848    -0.000000    0.000000    1.365696    -16.600498    3.313649    -10.972723    -33.837719    0.000000    0.000000    -16.918858    0.000000    0.000000    -27.341681    -0.990996    -2.171705    -54.714039    0.000000    0.000000    -27.357016    0.000000    0.000000    -37.365067    -6.812196    5.726180    -75.590355    0.000000    0.000000    -37.795177    0.000000    0.000000    -46.956810    -14.105069    12.822005    -97.099281    0.000000    0.000000    -48.549641    0.000000    0.000000    -3.875989    -2.091407    0.197502    94.058365    44.057674    -7.323738    -10.777366    -29.898876    0.725328    14.641570    -39.927193    -2.735058    1.517269    0.083201    0.864067    0.000000    0.000000    0.000000    0.000000    0.000000    0.000000    14.059859    0.266227    1.062921    28.124659    0.000000    -0.000000    14.062328    0.000000    -0.000000    20.099295    -1.130053    -2.023042    40.260590    0.000000    -0.000000    20.130297    0.000000    -0.000000    26.060621    -2.841309    -4.947810    52.396519    0.000000    -0.000000    26.198261    0.000000    -0.000000    32.116692    -4.909975    -7.764650    64.900208    0.000000    -0.000000    32.450104    0.000000    -0.000000    -3.175231    1.944532    2.239644    1.464049    0.090600    14.725715    -0.274604    -1.095170    -11.679405    0.261231    1.006968    -0.517561    1.551980    -2.600989    -1.000016    0.082756    11.079842    -7.959486    0.465064    -8.408501    4.213608    -0.351146    -1.830195    0.371491    
-4.828422    81.622002    103.622902    -0.486090    -0.997988    -2.243329    0.670615    -0.682680    -0.165818    -1.298738    5.582527    0.005812    0.853538    1.191470    -1.905422    2.908422    3.466001    -2.307223    1.397969    5.032562    -8.838722    -89.351112    26.327337    0.395451    9.949301    -11.056075    -0.341153    5.579540    -31.355810    16.315899    0.263878    0.014122    0.341400    -0.000000    0.000000    0.422770    -0.000000    0.000000    0.845540    -16.653795    3.238788    -10.695404    -33.914093    0.000000    0.000000    -16.957050    0.000000    0.000000    -27.661493    -1.169095    -1.934801    -55.364429    0.000000    0.000000    -27.682215    0.000000    0.000000    -37.944077    -7.120371    5.880053    -76.814789    0.000000    0.000000    -38.407394    0.000000    0.000000    -47.810478    -14.562095    12.838340    -98.915123    0.000000    0.000000    -49.457561    0.000000    0.000000    -3.854835    -2.093892    0.161643    94.059662    44.011349    -7.271912    -10.709942    -30.006813    0.574187    14.458345    -40.051193    -2.816696    1.498396    0.090278    0.839975    0.000000    0.000000    0.000000    0.000000    0.000000    0.000000    14.049309    0.253962    1.014756    28.103115    0.000000    -0.000000    14.051559    0.000000    -0.000000    20.113367    -1.140558    -2.051611    40.289787    0.000000    -0.000000    20.144899    0.000000    -0.000000    26.100004    -2.849279    -4.956328    52.476471    0.000000    -0.000000    26.238235    0.000000    -0.000000    32.183052    -4.914455    -7.751924    65.032440    0.000000    -0.000000    32.516220    0.000000    -0.000000    -3.114606    2.091470    2.237090    1.460102    -0.264532    14.875247    -0.253251    -0.942822    -11.771064    0.262055    1.002533    -0.520130    1.612743    -2.604214    -1.039150    0.084134    11.019666    -7.888299    0.455581    -8.393458    4.235281    -0.346719    -1.838313    0.363598    
-4.844449    81.604416    103.643974    -0.538856    -0.953872    -2.292018    0.689949    -0.711503    -0.168032    -1.260370    5.508444    0.002618    0.882083    1.254926    -1.898993    2.944037    3.578158    -2.304449    1.356601    5.010168    -8.783788    -89.486061    26.505726    0.273852    9.795249    -10.865773    -0.008726    6.927145    -31.135670    17.738945    0.216238    -0.157873    0.080027    -0.000000    0.000000    0.178165    -0.000000    0.000000    0.356331    -16.690380    3.159289    -10.415289    -33.956787    0.000000    0.000000    -16.978394    0.000000    0.000000    -27.958609    -1.355201    -1.691586    -55.971867    0.000000    0.000000    -27.985929    0.000000    0.000000    -38.494408    -7.439050    6.042827    -77.986938    0.000000    0.000000    -38.993469    0.000000    0.000000    -48.630268    -15.030755    12.865305    -100.669151    0.000000    0.000000    -50.334576    0.000000    0.000000    -3.835492    -2.097585    0.128680    94.065346    43.969772    -7.221227    -10.641280    -30.113380    0.419996    14.273997    -40.172161    -2.894615    1.481317    0.101009    0.811183    0.000000    0.000000    0.000000    0.000000    0.000000    0.000000    14.043860    0.241151    0.963966    28.091778    0.000000    -0.000000    14.045889    0.000000    -0.000000    20.132915    -1.152014    -2.082185    40.330044    0.000000    -0.000000    20.165024    0.000000    -0.000000    26.145231    -2.858538    -4.966186    52.568302    0.000000    -0.000000    26.284161    0.000000    -0.000000    32.255661    -4.920500    -7.739809    65.177429    0.000000    -0.000000    32.588711    0.000000    -0.000000    -3.054938    2.237410    2.236110    1.456988    -0.611263    15.021223    -0.232806    -0.794515    -11.862464    0.262683    0.997662    -0.522276    1.672939    -2.607525    -1.076709    0.085419    10.966589    -7.822031    0.445630    -8.382236    4.257911    -0.343222    -1.845735    0.357263    
-4.860265    81.587830    103.664909    -0.590015    -0.915325    -2.337522    0.707690    -0.732904    -0.173154    -1.222932    5.433399    -0.002035    0.909378    1.323357    -1.893916    2.980238    3.672647    -2.302850    1.322192    4.986423    -8.732257    -89.622604    26.692930    0.161325    9.641376    -10.732069    0.322871    8.207940    -30.941631    19.073843    0.176694    -0.302492    -0.138682    0.000000    0.000000    0.000000    0.000000    0.000000    0.000000    -16.717569    3.077751    -10.135277    -33.981129    0.000000    0.000000    -16.990566    0.000000    0.000000    -28.236013    -1.546703    -1.444728    -56.542301    0.000000    0.000000    -28.271151    0.000000    0.000000    -39.014645    -7.765127    6.212494    -79.103477    0.000000    0.000000    -39.551743    0.000000    0.000000    -49.410110    -15.507113    12.902238    -102.348335    0.000000    0.000000    -51.174160    0.000000    0.000000    -3.819205    -2.103856    0.100969    94.079552    43.937679    -7.173273    -10.569536    -30.218107    0.261749    14.085024    -40.284698    -2.967285    1.464572    0.117475    0.773351    0.000000    0.000000    0.000000    0.000000    0.000000    0.000000    14.045472    0.226790    0.906461    28.094538    0.000000    -0.000000    14.047268    0.000000    -0.000000    20.161093    -1.165206    -2.116883    40.387726    0.000000    -0.000000    20.193859    0.000000    -0.000000    26.200743    -2.869506    -4.977529    52.680920    0.000000    -0.000000    26.340462    0.000000    -0.000000    32.340332    -4.927999    -7.726416    65.346634    0.000000    -0.000000    32.673317    0.000000    -0.000000    -2.996825    2.380404    2.237742    1.453998    -0.941049    15.162506    -0.214198    -0.654252    -11.955178    0.262985    0.992193    -0.523704    1.731805    -2.611534    -1.111113    0.086310    10.926758    -7.765207    0.435347    -8.377878    4.282477    -0.341100    -1.851874    0.353250    
